<svg xmlns="http://www.w3.org/2000/svg" width="17.96" height="20.526" viewBox="0 0 17.96 20.526">
  <path id="Icon_awesome-bell" data-name="Icon awesome-bell" d="M8.98,20.526a2.565,2.565,0,0,0,2.565-2.566H6.415A2.565,2.565,0,0,0,8.98,20.526Zm8.635-6c-.775-.832-2.224-2.084-2.224-6.185a6.331,6.331,0,0,0-5.129-6.22V1.283a1.282,1.282,0,1,0-2.564,0v.835a6.331,6.331,0,0,0-5.129,6.22c0,4.1-1.449,5.353-2.224,6.185a1.253,1.253,0,0,0-.345.87,1.284,1.284,0,0,0,1.287,1.283H16.673a1.284,1.284,0,0,0,1.287-1.283,1.252,1.252,0,0,0-.345-.87Z" transform="translate(0)" fill="#0049c6"/>
</svg>
