<svg xmlns="http://www.w3.org/2000/svg" width="17.056" height="34.978" viewBox="0 0 17.056 34.978">
  <path id="Icon_metro-dollar2" data-name="Icon metro-dollar2" d="M27.013,25.334a7.747,7.747,0,0,1-6.544,7.808v3.416a.631.631,0,0,1-.165.449.551.551,0,0,1-.42.176H17.416A.545.545,0,0,1,17,37a.621.621,0,0,1-.174-.439V33.141a10.922,10.922,0,0,1-2.331-.605,11.891,11.891,0,0,1-1.855-.869,12.257,12.257,0,0,1-1.353-.937,10.585,10.585,0,0,1-.85-.732q-.228-.234-.32-.351a.623.623,0,0,1-.037-.8l1.883-2.635a.56.56,0,0,1,.42-.234.439.439,0,0,1,.439.176l.037.039a9.343,9.343,0,0,0,4.442,2.44,6,6,0,0,0,1.353.156,4.236,4.236,0,0,0,2.6-.839,2.8,2.8,0,0,0,1.124-2.381,2.08,2.08,0,0,0-.274-1.035,3.627,3.627,0,0,0-.612-.82,5,5,0,0,0-1.069-.732q-.731-.4-1.206-.625t-1.462-.634q-.713-.312-1.124-.488t-1.124-.517q-.713-.342-1.142-.605t-1.033-.693a6.528,6.528,0,0,1-.978-.83,11.946,11.946,0,0,1-.8-.956,4.845,4.845,0,0,1-.649-1.132,8.217,8.217,0,0,1-.384-1.3,7.215,7.215,0,0,1-.155-1.522A6.919,6.919,0,0,1,12.17,8.957a8.211,8.211,0,0,1,4.661-2.616V2.828A.621.621,0,0,1,17,2.389a.545.545,0,0,1,.411-.185h2.468a.551.551,0,0,1,.42.176.631.631,0,0,1,.165.449V6.263a9.609,9.609,0,0,1,2.02.449,11.273,11.273,0,0,1,1.59.654A8.7,8.7,0,0,1,25.24,8.1q.548.41.713.566t.274.273a.592.592,0,0,1,.091.742l-1.481,2.85a.5.5,0,0,1-.42.312.556.556,0,0,1-.494-.137q-.055-.059-.265-.234t-.713-.517a9.266,9.266,0,0,0-1.069-.625,7.825,7.825,0,0,0-1.362-.507,5.736,5.736,0,0,0-1.563-.224,4.532,4.532,0,0,0-2.833.839,2.609,2.609,0,0,0-1.1,2.167,2.735,2.735,0,0,0,.155.937,2.2,2.2,0,0,0,.539.81,8.2,8.2,0,0,0,.722.644,6.335,6.335,0,0,0,1.024.605q.686.342,1.106.527t1.28.537q.969.39,1.481.615t1.389.683a10.876,10.876,0,0,1,1.38.83,11.845,11.845,0,0,1,1.133.976,5,5,0,0,1,.969,1.239,7.348,7.348,0,0,1,.576,1.493,6.847,6.847,0,0,1,.238,1.835Z" transform="translate(-9.957 -2.203)" fill="#fff"/>
</svg>
