<svg xmlns="http://www.w3.org/2000/svg" width="24.938" height="24.938" viewBox="0 0 24.938 24.938">
  <path id="Icon_awesome-info-circle" data-name="Icon awesome-info-circle" d="M13.032.563A12.469,12.469,0,1,0,25.5,13.032,12.471,12.471,0,0,0,13.032.563Zm0,5.531A2.112,2.112,0,1,1,10.92,8.2,2.112,2.112,0,0,1,13.032,6.093Zm2.816,12.771a.6.6,0,0,1-.6.6H10.819a.6.6,0,0,1-.6-.6V17.657a.6.6,0,0,1,.6-.6h.6V13.836h-.6a.6.6,0,0,1-.6-.6V12.026a.6.6,0,0,1,.6-.6h3.218a.6.6,0,0,1,.6.6v5.028h.6a.6.6,0,0,1,.6.6Z" transform="translate(-0.563 -0.563)" opacity="0.211"/>
</svg>
